<svg xmlns="http://www.w3.org/2000/svg" viewBox="0 0 140 140"><circle fill="#6768ab" cx="70" cy="70" r="70"/><path fill="#fff" d="M66.54 68.38a54.25 54.25 0 0 1 6.18-15.16c2.86-4.77 5.74-9.43 11.17-11.1a14.08 14.08 0 0 1 3.44-.59 38.41 38.41 0 0 1 7.37-6.89c2.25-1.6 7.66-5.45 9.86-3.8a2.37 2.37 0 0 1 .83 1.42 5.87 5.87 0 0 1 4.75-1.19 3.2 3.2 0 0 1 2.26 1.55 3.44 3.44 0 0 1-1.31 3.8 5.77 5.77 0 0 1 .84 3.68 5.88 5.88 0 0 1-2.14 3.81 8.48 8.48 0 0 1 .59 5.46c-.83 3.38-4 6-8 6.65.7.65.87 1.16.83 1.55-.21 2.11-6.65 3-9 3.33a12.81 12.81 0 0 1-5.33 3.1 12.62 12.62 0 0 1-5.23.35A17.39 17.39 0 0 1 69 70.52q-3.91 4.1-7.84 8.2a2.52 2.52 0 0 1 1.1 1.28c.7 2.07-1.89 5-4.64 6.09-.39.15-2.81 1.14-3.44.33s1.19-3.3 4.64-7.84c1.59-2.08 4.26-5.58 7.72-10.2Z"/><g fill="none" stroke="#fff" stroke-linecap="round" stroke-miterlimit="10"><path d="m4.06 86.63 31.1-23a5.79 5.79 0 0 1 6.66-.15l46.64 31.29a5.8 5.8 0 0 1 1.69 7.87M90.15 102.64a5.86 5.86 0 0 1-1.48 1.59l-40.75 30.08"/><path d="M90.15 102.64h0v13.41a1.51 1.51 0 0 1-.59 1.2l-26.14 20.43M54.18 134.9l36-28.1M40.08 73.29l30.94 21.57M73.06 98.99l-38.2-26.63M30.78 76.22l37.38 26.72M30.73 78.89 46.39 90M47.96 91.17l17.14 11.97M59.22 136l30.93-24.2M47.85 134.29h.07"/></g><g fill="#edbc38"><path d="M118.24 95.29a8 8 0 0 1-7.79-7.76V78.1h-1.19v9.4a7.94 7.94 0 0 1-7.76 7.79h-5.87v1.19h5.84a7.94 7.94 0 0 1 7.79 7.76v9.43h1.19v-9.4a8 8 0 0 1 7.77-7.79h5.86v-1.19Z"/><path d="M104 88.41a2.23 2.23 0 0 1-1.52-.65 2.26 2.26 0 0 1-.65-1.51v-2.64h-.33v2.63a2.22 2.22 0 0 1-2.17 2.17h-1.6v.34h1.63a2.26 2.26 0 0 1 1.53.65 2.36 2.36 0 0 1 .65 1.52v2.63h.33v-2.63a2.23 2.23 0 0 1 .65-1.52 2.26 2.26 0 0 1 1.52-.65h1.64v-.34ZM46.8 38.05A7.19 7.19 0 0 1 42 36a7.26 7.26 0 0 1-2.07-4.83v-8.39h-1.1v8.35a7.06 7.06 0 0 1-6.9 6.92h-5.21v1.06h5.19A7.07 7.07 0 0 1 38.83 46v8.37h1.05V46a7.06 7.06 0 0 1 6.9-6.92H52v-1.03Z"/><path d="M35.13 31.26A2.22 2.22 0 0 1 33 29.09v-2.63h-.33v2.63a2.27 2.27 0 0 1-.67 1.52 2.24 2.24 0 0 1-1.51.65h-1.67v.33h1.63a2.31 2.31 0 0 1 1.53.65 2.38 2.38 0 0 1 .65 1.52v2.63H33v-2.62a2.22 2.22 0 0 1 2.17-2.18h1.64v-.33Z"/></g><path fill="#dfd782" d="M70 2A68 68 0 1 1 2 70 68.07 68.07 0 0 1 70 2m0-2a70 70 0 1 0 70 70A70 70 0 0 0 70 0Z"/></svg>